<svg width="2711" height="345" viewBox="0 0 2711 345" fill="none" xmlns="http://www.w3.org/2000/svg">
<rect x="2103" y="8" width="608" height="324" rx="10" fill="#181818"/>
<path d="M2190.38 271.112V248.072C2190.38 243.805 2192.43 241.672 2196.53 241.672H2218.54C2222.81 241.672 2224.94 243.805 2224.94 248.072V271.112C2224.94 275.037 2222.81 277 2218.54 277H2196.53C2194.65 277 2193.11 276.488 2191.92 275.464C2190.9 274.269 2190.38 272.819 2190.38 271.112ZM2246.88 171.272V141.064H2356.71V171.272L2298.34 246.536H2356.71V276.744H2250.72V246.792L2311.65 171.272H2246.88ZM2370.18 188.168V176.392C2370.18 151.987 2381.96 139.784 2405.51 139.784C2445.96 139.784 2470.19 142.088 2478.21 146.696V169.224H2416.52C2414.3 169.224 2412.42 169.395 2410.88 169.736C2409.52 170.077 2408.49 170.675 2407.81 171.528C2407.13 172.381 2406.62 173.32 2406.28 174.344C2406.11 175.368 2406.02 176.819 2406.02 178.696V184.84C2406.02 188.765 2406.87 191.24 2408.58 192.264C2410.29 193.117 2412.93 193.544 2416.52 193.544H2448.77C2455.09 193.544 2460.55 194.483 2465.16 196.36C2469.93 198.067 2473.69 200.541 2476.42 203.784C2479.32 207.027 2481.45 210.781 2482.82 215.048C2484.19 219.144 2484.87 223.667 2484.87 228.616V242.696C2484.87 263.176 2476.25 274.867 2459.01 277.768C2456.62 278.109 2454.15 278.28 2451.59 278.28C2408.58 278.28 2383.32 275.805 2375.81 270.856V248.584H2440.07C2446.04 248.584 2449.03 245.683 2449.03 239.88V233.48C2449.03 231.432 2448.77 229.811 2448.26 228.616C2447.92 227.421 2447.07 226.483 2445.7 225.8C2444.33 225.117 2442.46 224.776 2440.07 224.776H2408.32C2395.87 224.776 2386.39 221.875 2379.91 216.072C2373.42 210.269 2370.18 200.968 2370.18 188.168ZM2504.02 277V76.552H2539.6V155.656C2542.16 153.779 2543.79 152.584 2544.47 152.072C2545.32 151.56 2546.94 150.451 2549.33 148.744C2551.89 147.037 2553.77 145.928 2554.96 145.416C2556.16 144.904 2558.04 144.136 2560.6 143.112C2563.16 141.917 2565.37 141.149 2567.25 140.808C2569.3 140.296 2571.69 139.869 2574.42 139.528C2577.15 139.016 2579.97 138.76 2582.87 138.76C2610 138.76 2623.57 154.632 2623.57 186.376V277H2587.73V185.864C2587.73 179.379 2586.37 174.685 2583.64 171.784C2581.08 168.883 2577.41 167.432 2572.63 167.432C2567.85 167.432 2563.58 167.944 2559.83 168.968C2556.24 169.821 2552.92 171.101 2549.84 172.808C2546.94 174.344 2543.61 176.477 2539.86 179.208V277H2504.02Z" fill="white"/>
<path d="M1382.36 344.12V139.064H1395.93L1400.79 154.168C1405.06 151.096 1412.57 147.597 1423.32 143.672C1434.07 139.576 1443.37 137.528 1451.22 137.528C1460.1 137.528 1467.61 139.576 1473.75 143.672C1479.9 147.768 1484.5 153.4 1487.58 160.568C1490.65 167.565 1492.78 174.819 1493.98 182.328C1495.34 189.667 1496.02 197.688 1496.02 206.392C1496.02 216.291 1495.43 224.995 1494.23 232.504C1493.21 239.843 1491.16 247.181 1488.09 254.52C1485.19 261.688 1480.58 267.235 1474.26 271.16C1468.12 275.085 1460.44 277.048 1451.22 277.048C1444.91 277.048 1436.8 276.109 1426.9 274.232C1417.18 272.355 1408.47 269.88 1400.79 266.808V344.12H1382.36ZM1400.79 251.448C1417.86 255.885 1434.67 258.104 1451.22 258.104C1460.1 258.104 1466.58 254.435 1470.68 247.096C1474.95 239.757 1477.08 226.189 1477.08 206.392C1477.08 173.112 1468.46 156.472 1451.22 156.472C1436.89 156.472 1420.08 160.397 1400.79 168.248V251.448ZM1524.11 226.616V74.552H1543.05V226.616C1543.05 237.027 1544.25 244.28 1546.64 248.376C1549.03 252.301 1552.7 254.861 1557.65 256.056C1571.64 259.64 1579.24 261.432 1580.43 261.432V275H1557.9C1535.37 275 1524.11 258.872 1524.11 226.616ZM1598.3 233.784V139.064H1617.24V233.784C1617.24 241.805 1619.38 247.949 1623.64 252.216C1627.91 256.312 1633.46 258.36 1640.28 258.36C1646.77 258.36 1652.91 257.677 1658.72 256.312C1664.52 254.947 1669.13 253.581 1672.54 252.216C1676.12 250.68 1682.1 247.864 1690.46 243.768V139.064H1709.4V275H1696.09L1690.46 259.128C1689.95 259.299 1688.07 260.408 1684.83 262.456C1681.59 264.333 1679.54 265.443 1678.68 265.784C1678 266.125 1676.21 267.149 1673.31 268.856C1670.41 270.392 1668.36 271.331 1667.16 271.672C1665.97 272.013 1664.01 272.696 1661.28 273.72C1658.55 274.744 1656.24 275.427 1654.36 275.768C1652.66 276.109 1650.52 276.451 1647.96 276.792C1645.4 277.133 1642.84 277.304 1640.28 277.304C1627.31 277.304 1617.07 273.037 1609.56 264.504C1602.05 255.971 1598.3 245.731 1598.3 233.784ZM1737.04 245.56C1737.04 240.781 1738.32 236.344 1740.88 232.248C1743.44 227.981 1747.19 225.336 1752.14 224.312C1742.24 217.997 1737.29 205.539 1737.29 186.936C1737.29 171.064 1741.13 159.032 1748.81 150.84C1756.66 142.648 1767.59 138.552 1781.58 138.552H1861.45V152.888L1840.72 157.496C1840.89 157.837 1841.49 158.947 1842.51 160.824C1843.53 162.531 1844.3 163.981 1844.81 165.176C1845.33 166.2 1845.92 167.821 1846.61 170.04C1847.29 172.088 1847.8 174.563 1848.14 177.464C1848.48 180.195 1848.65 183.352 1848.65 186.936C1848.65 191.715 1848.06 196.579 1846.86 201.528C1845.84 206.477 1843.96 211.853 1841.23 217.656C1838.5 223.288 1834.15 227.896 1828.17 231.48C1822.2 235.064 1814.95 236.856 1806.41 236.856H1766.48C1759.48 236.856 1755.98 239.416 1755.98 244.536C1755.98 250.339 1759.48 253.24 1766.48 253.24H1821.01C1831.42 253.24 1839.52 256.483 1845.33 262.968C1851.13 269.283 1854.03 277.816 1854.03 288.568V304.696C1854.03 309.304 1853.52 313.571 1852.49 317.496C1851.64 321.421 1849.93 325.517 1847.37 329.784C1844.98 334.221 1841.06 337.72 1835.6 340.28C1830.14 342.84 1823.48 344.12 1815.63 344.12H1777.23C1764.77 344.12 1754.79 340.792 1747.28 334.136C1739.94 327.48 1736.27 317.667 1736.27 304.696V282.936L1746.51 266.296C1740.2 261.859 1737.04 254.947 1737.04 245.56ZM1755.21 304.696C1755.21 318.349 1762.55 325.176 1777.23 325.176H1815.63C1828.6 325.176 1835.09 318.349 1835.09 304.696V289.848C1835.09 283.363 1833.89 278.755 1831.5 276.024C1829.28 273.464 1824.68 272.184 1817.68 272.184H1766.73C1764.34 272.184 1762.21 272.013 1760.33 271.672C1758.46 271.331 1757.18 270.989 1756.49 270.648L1755.21 270.136V304.696ZM1756.24 186.936C1756.24 190.52 1756.58 193.933 1757.26 197.176C1757.94 200.419 1759.05 203.747 1760.59 207.16C1762.13 210.403 1764.52 213.048 1767.76 215.096C1771.17 216.973 1775.18 217.912 1779.79 217.912H1804.88C1809.49 217.912 1813.5 216.973 1816.91 215.096C1820.32 213.219 1822.88 210.744 1824.59 207.672C1826.47 204.6 1827.75 201.528 1828.43 198.456C1829.28 195.213 1829.71 191.971 1829.71 188.728C1829.71 188.045 1829.71 187.448 1829.71 186.936C1829.2 177.037 1827.24 169.699 1823.82 164.92C1820.41 159.971 1814.01 157.496 1804.62 157.496H1781.58C1764.69 157.496 1756.24 167.309 1756.24 186.936ZM1879.3 117.048V103.224C1879.3 98.9573 1881.35 96.824 1885.44 96.824H1898.24C1902.17 96.824 1904.13 98.9573 1904.13 103.224V117.048C1904.13 120.973 1902.17 122.936 1898.24 122.936H1885.44C1881.35 122.936 1879.3 120.973 1879.3 117.048ZM1881.86 275V139.064H1900.8V275H1881.86ZM1932.36 275V139.064H1945.67L1951.3 154.936C1951.82 154.765 1953.69 153.741 1956.94 151.864C1960.18 149.816 1962.14 148.621 1962.82 148.28C1963.68 147.939 1965.55 147 1968.46 145.464C1971.36 143.757 1973.41 142.733 1974.6 142.392C1975.79 142.051 1977.76 141.368 1980.49 140.344C1983.22 139.32 1985.44 138.637 1987.14 138.296C1989.02 137.955 1991.24 137.613 1993.8 137.272C1996.36 136.931 1998.92 136.76 2001.48 136.76C2014.45 136.76 2024.69 141.027 2032.2 149.56C2039.71 158.093 2043.46 168.333 2043.46 180.28V275H2024.52V180.28C2024.52 172.259 2022.39 166.2 2018.12 162.104C2013.85 157.837 2008.31 155.704 2001.48 155.704C1994.99 155.704 1988.85 156.387 1983.05 157.752C1977.25 159.117 1972.55 160.568 1968.97 162.104C1965.55 163.469 1959.67 166.2 1951.3 170.296V275H1932.36Z" fill="#181818"/>
<rect y="7" width="1330" height="324" rx="10" fill="#181818"/>
<path d="M31.96 248.888C31.96 243.085 33.24 238.051 35.8 233.784C38.5307 229.347 42.5413 226.275 47.832 224.568C46.4667 223.715 45.1867 222.691 43.992 221.496C42.7973 220.301 41.688 219.021 40.664 217.656C39.8107 216.291 38.9573 214.84 38.104 213.304C37.4213 211.597 36.7387 209.891 36.056 208.184C35.544 206.477 35.032 204.771 34.52 203.064C34.1787 201.187 33.8373 199.395 33.496 197.688C33.3253 195.811 33.1547 194.019 32.984 192.312C32.984 190.435 32.984 188.643 32.984 186.936C32.984 154.68 48.6853 138.552 80.088 138.552H162.776V160.056L147.672 164.664C147.672 164.664 147.928 165.347 148.44 166.712C148.952 167.907 149.208 168.675 149.208 169.016C149.379 169.187 149.635 169.869 149.976 171.064C150.488 172.259 150.829 173.197 151 173.88C151.171 174.563 151.341 175.587 151.512 176.952C151.853 178.317 152.024 179.683 152.024 181.048C152.195 182.243 152.365 183.779 152.536 185.656C152.707 187.363 152.792 189.24 152.792 191.288C152.792 193.848 152.621 196.408 152.28 198.968C151.939 201.357 151.427 203.917 150.744 206.648C150.061 209.379 149.123 211.939 147.928 214.328C146.904 216.717 145.539 219.107 143.832 221.496C142.125 223.715 140.077 225.763 137.688 227.64C135.299 229.517 132.568 231.139 129.496 232.504C126.595 233.869 123.096 234.979 119 235.832C115.075 236.515 110.808 236.856 106.2 236.856H74.712C72.8347 236.856 71.2987 236.941 70.104 237.112C68.9093 237.283 67.6293 237.88 66.264 238.904C65.0693 239.757 64.472 241.037 64.472 242.744C64.472 245.475 65.3253 247.352 67.032 248.376C68.9093 249.229 71.4693 249.656 74.712 249.656H116.44C129.069 249.656 138.883 253.069 145.88 259.896C153.048 266.552 156.632 276.621 156.632 290.104V304.696C156.632 307.256 156.461 309.645 156.12 311.864C155.779 314.253 155.267 316.643 154.584 319.032C154.072 321.421 153.219 323.64 152.024 325.688C150.829 327.907 149.464 329.955 147.928 331.832C146.392 333.709 144.515 335.331 142.296 336.696C140.077 338.232 137.603 339.512 134.872 340.536C132.141 341.731 128.984 342.584 125.4 343.096C121.987 343.779 118.232 344.12 114.136 344.12H75.736C67.3733 344.12 60.0347 342.755 53.72 340.024C47.576 337.293 42.6267 332.856 38.872 326.712C35.1173 320.739 33.24 313.4 33.24 304.696V287.544L45.272 275C43.3947 273.976 41.688 272.696 40.152 271.16C38.616 269.453 37.1653 267.491 35.8 265.272C34.6053 263.053 33.6667 260.579 32.984 257.848C32.3013 254.947 31.96 251.96 31.96 248.888ZM69.336 300.344C69.336 303.587 69.6773 306.232 70.36 308.28C71.2133 310.328 72.408 311.864 73.944 312.888C75.6507 313.912 77.272 314.595 78.808 314.936C80.5147 315.277 82.7333 315.448 85.464 315.448H106.456C109.699 315.448 112.259 315.021 114.136 314.168C116.184 313.485 117.635 312.461 118.488 311.096C119.512 309.731 120.195 308.28 120.536 306.744C120.877 305.208 121.048 303.331 121.048 301.112V291.128C121.048 290.104 120.963 289.165 120.792 288.312C120.621 287.459 120.451 286.605 120.28 285.752C120.109 285.069 119.768 284.387 119.256 283.704C118.915 283.192 118.488 282.595 117.976 281.912C117.464 281.4 116.867 280.973 116.184 280.632C115.501 280.291 114.733 279.949 113.88 279.608C113.027 279.267 112.088 279.011 111.064 278.84C110.04 278.669 108.931 278.584 107.736 278.584H80.088L69.336 277.816V300.344ZM68.824 186.936C68.824 200.931 74.2853 207.928 85.208 207.928H99.544C111.32 207.928 117.123 200.931 116.952 186.936C116.781 179.768 115.331 174.733 112.6 171.832C110.04 168.76 105.603 167.224 99.288 167.224H85.72C82.136 167.224 79.1493 167.821 76.76 169.016C74.5413 170.04 72.8347 171.576 71.64 173.624C70.616 175.501 69.848 177.464 69.336 179.512C68.9947 181.56 68.824 184.035 68.824 186.936ZM175.722 118.84V96.312C175.722 91.8747 177.77 89.656 181.866 89.656H208.746C212.501 89.656 214.378 91.8747 214.378 96.312V118.84C214.378 120.717 213.866 122.168 212.842 123.192C211.989 124.216 210.623 124.728 208.746 124.728H181.866C180.671 124.728 179.562 124.557 178.538 124.216C177.685 123.704 177.002 123.021 176.49 122.168C175.978 121.144 175.722 120.035 175.722 118.84ZM177.002 275V139.064H212.842V275H177.002ZM228.09 166.2V146.232L250.106 138.808L255.994 100.92H285.946V138.808H316.41V166.2H285.946V220.728C285.946 227.043 286.458 232.163 287.482 236.088C288.506 239.843 289.786 242.488 291.322 244.024C292.858 245.389 294.906 246.584 297.466 247.608C307.706 251.192 313.423 252.984 314.618 252.984V275H283.386C272.805 275 264.613 271.245 258.81 263.736C253.007 256.056 250.106 243.597 250.106 226.36V166.2H228.09ZM333.27 344.12V139.064H362.71L368.854 152.632C373.803 148.707 380.033 145.208 387.542 142.136C395.222 139.064 402.731 137.528 410.07 137.528C416.726 137.528 422.529 138.637 427.478 140.856C432.598 143.075 436.779 146.147 440.022 150.072C443.435 153.997 446.251 158.861 448.47 164.664C450.689 170.467 452.225 176.781 453.078 183.608C453.931 190.435 454.358 198.029 454.358 206.392C454.358 213.389 454.102 219.704 453.59 225.336C453.249 230.968 452.481 236.6 451.286 242.232C450.091 247.693 448.385 252.472 446.166 256.568C444.118 260.664 441.473 264.333 438.23 267.576C435.158 270.648 431.233 273.037 426.454 274.744C421.675 276.28 416.214 277.048 410.07 277.048C403.926 277.048 397.014 276.28 389.334 274.744C381.654 273.037 374.827 270.904 368.854 268.344V344.12H333.27ZM368.854 243.768C377.729 247.181 388.395 248.888 400.854 248.888C404.95 248.888 408.193 247.949 410.582 246.072C412.971 244.024 414.849 239.928 416.214 233.784C417.75 227.64 418.518 219.021 418.518 207.928C418.518 193.251 417.067 183.011 414.166 177.208C411.265 171.235 406.827 168.248 400.854 168.248C388.225 168.248 377.558 170.979 368.854 176.44V243.768ZM475.52 275V139.064H505.728L511.36 156.216C524.16 143.928 537.131 137.784 550.272 137.784C557.611 137.784 562.645 138.296 565.376 139.32V173.88C560.597 173.368 554.027 173.112 545.664 173.112C537.643 173.112 530.901 174.221 525.44 176.44C520.149 178.488 515.456 182.413 511.36 188.216V275H475.52ZM580.222 208.952C580.222 194.957 581.246 183.437 583.294 174.392C585.342 165.347 588.926 158.093 594.046 152.632C599.166 147.171 605.481 143.331 612.99 141.112C620.67 138.893 630.398 137.784 642.174 137.784C665.555 137.784 681.683 142.904 690.558 153.144C699.603 163.384 704.126 181.987 704.126 208.952C704.126 234.381 699.689 251.96 690.814 261.688C682.11 271.416 665.897 276.28 642.174 276.28C632.787 276.28 624.595 275.512 617.598 273.976C610.771 272.269 604.883 269.795 599.934 266.552C595.155 263.309 591.315 259.043 588.414 253.752C585.513 248.291 583.379 241.976 582.014 234.808C580.819 227.469 580.222 218.851 580.222 208.952ZM616.062 208.952C616.062 217.656 616.489 224.568 617.342 229.688C618.195 234.808 619.731 238.733 621.95 241.464C624.339 244.024 626.985 245.645 629.886 246.328C632.787 247.011 636.883 247.352 642.174 247.352C646.782 247.352 650.281 247.181 652.67 246.84C655.23 246.499 657.619 245.645 659.838 244.28C662.227 242.915 663.934 240.781 664.958 237.88C666.153 234.979 667.006 231.309 667.518 226.872C668.03 222.264 668.286 216.291 668.286 208.952C668.286 201.101 668.03 194.787 667.518 190.008C667.177 185.059 666.494 180.963 665.47 177.72C664.446 174.307 662.825 171.917 660.606 170.552C658.387 169.016 655.913 167.992 653.182 167.48C650.451 166.797 646.782 166.456 642.174 166.456C638.419 166.456 635.347 166.627 632.958 166.968C630.569 167.309 628.265 168.077 626.046 169.272C623.827 170.296 622.121 171.747 620.926 173.624C619.902 175.331 618.963 177.805 618.11 181.048C617.257 184.291 616.659 188.131 616.318 192.568C616.147 197.005 616.062 202.467 616.062 208.952ZM717.84 166.456V143.416L739.088 139.064V113.72C739.088 107.576 739.771 102.2 741.136 97.592C742.501 92.984 744.635 88.888 747.536 85.304C750.608 81.5493 754.789 78.7333 760.08 76.856C765.371 74.808 771.771 73.784 779.28 73.784C792.08 73.784 803.515 75.832 813.584 79.928V101.176L789.008 100.92C786.277 100.92 783.973 101.261 782.096 101.944C780.219 102.627 778.768 103.395 777.744 104.248C776.891 104.931 776.208 106.467 775.696 108.856C775.355 111.075 775.099 112.952 774.928 114.488C774.928 115.853 774.928 118.413 774.928 122.168V139.064H805.904V166.456H774.928V275H739.088V166.456H717.84ZM826.722 118.84V96.312C826.722 91.8747 828.77 89.656 832.866 89.656H859.746C863.501 89.656 865.378 91.8747 865.378 96.312V118.84C865.378 120.717 864.866 122.168 863.842 123.192C862.989 124.216 861.623 124.728 859.746 124.728H832.866C831.671 124.728 830.562 124.557 829.538 124.216C828.685 123.704 828.002 123.021 827.49 122.168C826.978 121.144 826.722 120.035 826.722 118.84ZM828.002 275V139.064H863.842V275H828.002ZM886.77 226.616V74.552H922.61V220.984C922.61 230.029 923.549 236.344 925.426 239.928C927.303 243.512 930.29 246.072 934.386 247.608C944.626 251.192 950.343 252.984 951.538 252.984V275H921.842C916.21 275 911.261 274.147 906.994 272.44C902.727 270.733 899.058 268.088 895.986 264.504C892.914 260.749 890.61 255.715 889.074 249.4C887.538 243.085 886.77 235.491 886.77 226.616ZM964.972 206.392C964.972 194.616 965.655 184.803 967.02 176.952C968.556 168.931 970.689 162.36 973.42 157.24C976.151 151.949 979.991 147.939 984.94 145.208C989.889 142.477 995.351 140.6 1001.32 139.576C1007.47 138.552 1015.15 138.04 1024.36 138.04C1030.51 138.04 1035.71 138.211 1039.98 138.552C1044.25 138.723 1048.51 139.235 1052.78 140.088C1057.22 140.771 1060.8 141.88 1063.53 143.416C1066.26 144.781 1068.91 146.744 1071.47 149.304C1074.03 151.693 1075.99 154.68 1077.36 158.264C1078.89 161.677 1080 165.859 1080.68 170.808C1081.54 175.587 1081.96 181.133 1081.96 187.448C1081.96 199.395 1078.81 208.099 1072.49 213.56C1066.18 219.021 1056.71 221.752 1044.08 221.752H1000.81C1000.81 229.603 1001.92 235.491 1004.14 239.416C1006.53 243.171 1009.43 245.475 1012.84 246.328C1016.43 247.181 1021.97 247.608 1029.48 247.608C1050.48 247.608 1067.12 246.669 1079.4 244.792V269.112C1066.6 273.891 1043.39 276.28 1009.77 276.28C1001.07 276.28 993.815 275 988.012 272.44C982.38 269.88 977.857 265.699 974.444 259.896C971.031 254.093 968.556 246.925 967.02 238.392C965.655 229.859 964.972 219.192 964.972 206.392ZM1000.81 195.896H1034.86C1042.37 195.896 1046.12 192.483 1046.12 185.656C1046.12 177.123 1044.93 171.661 1042.54 169.272C1040.32 166.712 1034.95 165.432 1026.41 165.432C1020.95 165.432 1016.85 165.688 1014.12 166.2C1011.56 166.541 1009 167.736 1006.44 169.784C1004.05 171.661 1002.43 174.648 1001.58 178.744C1000.9 182.84 1000.64 188.557 1000.81 195.896ZM1097.68 186.168V174.392C1097.68 149.987 1109.46 137.784 1133.01 137.784C1173.46 137.784 1197.69 140.088 1205.71 144.696V167.224H1144.02C1141.8 167.224 1139.92 167.395 1138.38 167.736C1137.02 168.077 1135.99 168.675 1135.31 169.528C1134.63 170.381 1134.12 171.32 1133.78 172.344C1133.61 173.368 1133.52 174.819 1133.52 176.696V182.84C1133.52 186.765 1134.37 189.24 1136.08 190.264C1137.79 191.117 1140.43 191.544 1144.02 191.544H1176.27C1182.59 191.544 1188.05 192.483 1192.66 194.36C1197.43 196.067 1201.19 198.541 1203.92 201.784C1206.82 205.027 1208.95 208.781 1210.32 213.048C1211.69 217.144 1212.37 221.667 1212.37 226.616V240.696C1212.37 261.176 1203.75 272.867 1186.51 275.768C1184.12 276.109 1181.65 276.28 1179.09 276.28C1136.08 276.28 1110.82 273.805 1103.31 268.856V246.584H1167.57C1173.54 246.584 1176.53 243.683 1176.53 237.88V231.48C1176.53 229.432 1176.27 227.811 1175.76 226.616C1175.42 225.421 1174.57 224.483 1173.2 223.8C1171.83 223.117 1169.96 222.776 1167.57 222.776H1135.82C1123.37 222.776 1113.89 219.875 1107.41 214.072C1100.92 208.269 1097.68 198.968 1097.68 186.168ZM1236.38 269.112V246.072C1236.38 241.805 1238.43 239.672 1242.53 239.672H1264.54C1268.81 239.672 1270.94 241.805 1270.94 246.072V269.112C1270.94 273.037 1268.81 275 1264.54 275H1242.53C1240.65 275 1239.11 274.488 1237.92 273.464C1236.9 272.269 1236.38 270.819 1236.38 269.112Z" fill="white"/>
</svg>
