<svg width="2711" height="347" viewBox="0 0 2711 347" fill="none" xmlns="http://www.w3.org/2000/svg">
<rect x="2103" y="7" width="608" height="324" rx="10" fill="#181818"/>
<path d="M2179.38 273.112V250.072C2179.38 245.805 2181.43 243.672 2185.53 243.672H2207.54C2211.81 243.672 2213.94 245.805 2213.94 250.072V273.112C2213.94 277.037 2211.81 279 2207.54 279H2185.53C2183.65 279 2182.11 278.488 2180.92 277.464C2179.9 276.269 2179.38 274.819 2179.38 273.112ZM2235.88 173.272V143.064H2345.71V173.272L2287.34 248.536H2345.71V278.744H2239.72V248.792L2300.65 173.272H2235.88ZM2359.18 190.168V178.392C2359.18 153.987 2370.96 141.784 2394.51 141.784C2434.96 141.784 2459.19 144.088 2467.21 148.696V171.224H2405.52C2403.3 171.224 2401.42 171.395 2399.88 171.736C2398.52 172.077 2397.49 172.675 2396.81 173.528C2396.13 174.381 2395.62 175.32 2395.28 176.344C2395.11 177.368 2395.02 178.819 2395.02 180.696V186.84C2395.02 190.765 2395.87 193.24 2397.58 194.264C2399.29 195.117 2401.93 195.544 2405.52 195.544H2437.77C2444.09 195.544 2449.55 196.483 2454.16 198.36C2458.93 200.067 2462.69 202.541 2465.42 205.784C2468.32 209.027 2470.45 212.781 2471.82 217.048C2473.19 221.144 2473.87 225.667 2473.87 230.616V244.696C2473.87 265.176 2465.25 276.867 2448.01 279.768C2445.62 280.109 2443.15 280.28 2440.59 280.28C2397.58 280.28 2372.32 277.805 2364.81 272.856V250.584H2429.07C2435.04 250.584 2438.03 247.683 2438.03 241.88V235.48C2438.03 233.432 2437.77 231.811 2437.26 230.616C2436.92 229.421 2436.07 228.483 2434.7 227.8C2433.33 227.117 2431.46 226.776 2429.07 226.776H2397.32C2384.87 226.776 2375.39 223.875 2368.91 218.072C2362.42 212.269 2359.18 202.968 2359.18 190.168ZM2493.02 279V78.552H2528.6V157.656C2531.16 155.779 2532.79 154.584 2533.47 154.072C2534.32 153.56 2535.94 152.451 2538.33 150.744C2540.89 149.037 2542.77 147.928 2543.96 147.416C2545.16 146.904 2547.04 146.136 2549.6 145.112C2552.16 143.917 2554.37 143.149 2556.25 142.808C2558.3 142.296 2560.69 141.869 2563.42 141.528C2566.15 141.016 2568.97 140.76 2571.87 140.76C2599 140.76 2612.57 156.632 2612.57 188.376V279H2576.73V187.864C2576.73 181.379 2575.37 176.685 2572.64 173.784C2570.08 170.883 2566.41 169.432 2561.63 169.432C2556.85 169.432 2552.58 169.944 2548.83 170.968C2545.24 171.821 2541.92 173.101 2538.84 174.808C2535.94 176.344 2532.61 178.477 2528.86 181.208V279H2493.02Z" fill="white"/>
<path d="M1376.36 346.12V141.064H1389.93L1394.79 156.168C1399.06 153.096 1406.57 149.597 1417.32 145.672C1428.07 141.576 1437.37 139.528 1445.22 139.528C1454.1 139.528 1461.61 141.576 1467.75 145.672C1473.9 149.768 1478.5 155.4 1481.58 162.568C1484.65 169.565 1486.78 176.819 1487.98 184.328C1489.34 191.667 1490.02 199.688 1490.02 208.392C1490.02 218.291 1489.43 226.995 1488.23 234.504C1487.21 241.843 1485.16 249.181 1482.09 256.52C1479.19 263.688 1474.58 269.235 1468.26 273.16C1462.12 277.085 1454.44 279.048 1445.22 279.048C1438.91 279.048 1430.8 278.109 1420.9 276.232C1411.18 274.355 1402.47 271.88 1394.79 268.808V346.12H1376.36ZM1394.79 253.448C1411.86 257.885 1428.67 260.104 1445.22 260.104C1454.1 260.104 1460.58 256.435 1464.68 249.096C1468.95 241.757 1471.08 228.189 1471.08 208.392C1471.08 175.112 1462.46 158.472 1445.22 158.472C1430.89 158.472 1414.08 162.397 1394.79 170.248V253.448ZM1518.11 228.616V76.552H1537.05V228.616C1537.05 239.027 1538.25 246.28 1540.64 250.376C1543.03 254.301 1546.7 256.861 1551.65 258.056C1565.64 261.64 1573.24 263.432 1574.43 263.432V277H1551.9C1529.37 277 1518.11 260.872 1518.11 228.616ZM1592.3 235.784V141.064H1611.24V235.784C1611.24 243.805 1613.38 249.949 1617.64 254.216C1621.91 258.312 1627.46 260.36 1634.28 260.36C1640.77 260.36 1646.91 259.677 1652.72 258.312C1658.52 256.947 1663.13 255.581 1666.54 254.216C1670.12 252.68 1676.1 249.864 1684.46 245.768V141.064H1703.4V277H1690.09L1684.46 261.128C1683.95 261.299 1682.07 262.408 1678.83 264.456C1675.59 266.333 1673.54 267.443 1672.68 267.784C1672 268.125 1670.21 269.149 1667.31 270.856C1664.41 272.392 1662.36 273.331 1661.16 273.672C1659.97 274.013 1658.01 274.696 1655.28 275.72C1652.55 276.744 1650.24 277.427 1648.36 277.768C1646.66 278.109 1644.52 278.451 1641.96 278.792C1639.4 279.133 1636.84 279.304 1634.28 279.304C1621.31 279.304 1611.07 275.037 1603.56 266.504C1596.05 257.971 1592.3 247.731 1592.3 235.784ZM1731.04 247.56C1731.04 242.781 1732.32 238.344 1734.88 234.248C1737.44 229.981 1741.19 227.336 1746.14 226.312C1736.24 219.997 1731.29 207.539 1731.29 188.936C1731.29 173.064 1735.13 161.032 1742.81 152.84C1750.66 144.648 1761.59 140.552 1775.58 140.552H1855.45V154.888L1834.72 159.496C1834.89 159.837 1835.49 160.947 1836.51 162.824C1837.53 164.531 1838.3 165.981 1838.81 167.176C1839.33 168.2 1839.92 169.821 1840.61 172.04C1841.29 174.088 1841.8 176.563 1842.14 179.464C1842.48 182.195 1842.65 185.352 1842.65 188.936C1842.65 193.715 1842.06 198.579 1840.86 203.528C1839.84 208.477 1837.96 213.853 1835.23 219.656C1832.5 225.288 1828.15 229.896 1822.17 233.48C1816.2 237.064 1808.95 238.856 1800.41 238.856H1760.48C1753.48 238.856 1749.98 241.416 1749.98 246.536C1749.98 252.339 1753.48 255.24 1760.48 255.24H1815.01C1825.42 255.24 1833.52 258.483 1839.33 264.968C1845.13 271.283 1848.03 279.816 1848.03 290.568V306.696C1848.03 311.304 1847.52 315.571 1846.49 319.496C1845.64 323.421 1843.93 327.517 1841.37 331.784C1838.98 336.221 1835.06 339.72 1829.6 342.28C1824.14 344.84 1817.48 346.12 1809.63 346.12H1771.23C1758.77 346.12 1748.79 342.792 1741.28 336.136C1733.94 329.48 1730.27 319.667 1730.27 306.696V284.936L1740.51 268.296C1734.2 263.859 1731.04 256.947 1731.04 247.56ZM1749.21 306.696C1749.21 320.349 1756.55 327.176 1771.23 327.176H1809.63C1822.6 327.176 1829.09 320.349 1829.09 306.696V291.848C1829.09 285.363 1827.89 280.755 1825.5 278.024C1823.28 275.464 1818.68 274.184 1811.68 274.184H1760.73C1758.34 274.184 1756.21 274.013 1754.33 273.672C1752.46 273.331 1751.18 272.989 1750.49 272.648L1749.21 272.136V306.696ZM1750.24 188.936C1750.24 192.52 1750.58 195.933 1751.26 199.176C1751.94 202.419 1753.05 205.747 1754.59 209.16C1756.13 212.403 1758.52 215.048 1761.76 217.096C1765.17 218.973 1769.18 219.912 1773.79 219.912H1798.88C1803.49 219.912 1807.5 218.973 1810.91 217.096C1814.32 215.219 1816.88 212.744 1818.59 209.672C1820.47 206.6 1821.75 203.528 1822.43 200.456C1823.28 197.213 1823.71 193.971 1823.71 190.728C1823.71 190.045 1823.71 189.448 1823.71 188.936C1823.2 179.037 1821.24 171.699 1817.82 166.92C1814.41 161.971 1808.01 159.496 1798.62 159.496H1775.58C1758.69 159.496 1750.24 169.309 1750.24 188.936ZM1873.3 119.048V105.224C1873.3 100.957 1875.35 98.824 1879.44 98.824H1892.24C1896.17 98.824 1898.13 100.957 1898.13 105.224V119.048C1898.13 122.973 1896.17 124.936 1892.24 124.936H1879.44C1875.35 124.936 1873.3 122.973 1873.3 119.048ZM1875.86 277V141.064H1894.8V277H1875.86ZM1926.36 277V141.064H1939.67L1945.3 156.936C1945.82 156.765 1947.69 155.741 1950.94 153.864C1954.18 151.816 1956.14 150.621 1956.82 150.28C1957.68 149.939 1959.55 149 1962.46 147.464C1965.36 145.757 1967.41 144.733 1968.6 144.392C1969.79 144.051 1971.76 143.368 1974.49 142.344C1977.22 141.32 1979.44 140.637 1981.14 140.296C1983.02 139.955 1985.24 139.613 1987.8 139.272C1990.36 138.931 1992.92 138.76 1995.48 138.76C2008.45 138.76 2018.69 143.027 2026.2 151.56C2033.71 160.093 2037.46 170.333 2037.46 182.28V277H2018.52V182.28C2018.52 174.259 2016.39 168.2 2012.12 164.104C2007.85 159.837 2002.31 157.704 1995.48 157.704C1988.99 157.704 1982.85 158.387 1977.05 159.752C1971.25 161.117 1966.55 162.568 1962.97 164.104C1959.55 165.469 1953.67 168.2 1945.3 172.296V277H1926.36Z" fill="white"/>
<rect y="7" width="1330" height="324" rx="10" fill="#181818"/>
<path d="M32.1955 248.888C32.1955 243.085 33.4755 238.051 36.0355 233.784C38.7661 229.347 42.7768 226.275 48.0675 224.568C46.7021 223.715 45.4221 222.691 44.2275 221.496C43.0328 220.301 41.9235 219.021 40.8995 217.656C40.0461 216.291 39.1928 214.84 38.3395 213.304C37.6568 211.597 36.9741 209.891 36.2915 208.184C35.7795 206.477 35.2675 204.771 34.7555 203.064C34.4141 201.187 34.0728 199.395 33.7315 197.688C33.5608 195.811 33.3901 194.019 33.2195 192.312C33.2195 190.435 33.2195 188.643 33.2195 186.936C33.2195 154.68 48.9208 138.552 80.3235 138.552H163.011V160.056L147.907 164.664C147.907 164.664 148.163 165.347 148.675 166.712C149.187 167.907 149.443 168.675 149.443 169.016C149.614 169.187 149.87 169.869 150.211 171.064C150.723 172.259 151.065 173.197 151.235 173.88C151.406 174.563 151.577 175.587 151.747 176.952C152.089 178.317 152.259 179.683 152.259 181.048C152.43 182.243 152.601 183.779 152.771 185.656C152.942 187.363 153.027 189.24 153.027 191.288C153.027 193.848 152.857 196.408 152.515 198.968C152.174 201.357 151.662 203.917 150.979 206.648C150.297 209.379 149.358 211.939 148.163 214.328C147.139 216.717 145.774 219.107 144.067 221.496C142.361 223.715 140.313 225.763 137.923 227.64C135.534 229.517 132.803 231.139 129.731 232.504C126.83 233.869 123.331 234.979 119.235 235.832C115.31 236.515 111.043 236.856 106.435 236.856H74.9475C73.0701 236.856 71.5341 236.941 70.3395 237.112C69.1448 237.283 67.8648 237.88 66.4995 238.904C65.3048 239.757 64.7075 241.037 64.7075 242.744C64.7075 245.475 65.5608 247.352 67.2675 248.376C69.1448 249.229 71.7048 249.656 74.9475 249.656H116.675C129.305 249.656 139.118 253.069 146.115 259.896C153.283 266.552 156.867 276.621 156.867 290.104V304.696C156.867 307.256 156.697 309.645 156.355 311.864C156.014 314.253 155.502 316.643 154.819 319.032C154.307 321.421 153.454 323.64 152.259 325.688C151.065 327.907 149.699 329.955 148.163 331.832C146.627 333.709 144.75 335.331 142.531 336.696C140.313 338.232 137.838 339.512 135.107 340.536C132.377 341.731 129.219 342.584 125.635 343.096C122.222 343.779 118.467 344.12 114.371 344.12H75.9715C67.6088 344.12 60.2701 342.755 53.9555 340.024C47.8115 337.293 42.8621 332.856 39.1075 326.712C35.3528 320.739 33.4755 313.4 33.4755 304.696V287.544L45.5075 275C43.6301 273.976 41.9235 272.696 40.3875 271.16C38.8515 269.453 37.4008 267.491 36.0355 265.272C34.8408 263.053 33.9021 260.579 33.2195 257.848C32.5368 254.947 32.1955 251.96 32.1955 248.888ZM69.5715 300.344C69.5715 303.587 69.9128 306.232 70.5955 308.28C71.4488 310.328 72.6435 311.864 74.1795 312.888C75.8861 313.912 77.5075 314.595 79.0435 314.936C80.7501 315.277 82.9688 315.448 85.6995 315.448H106.691C109.934 315.448 112.494 315.021 114.371 314.168C116.419 313.485 117.87 312.461 118.723 311.096C119.747 309.731 120.43 308.28 120.771 306.744C121.113 305.208 121.283 303.331 121.283 301.112V291.128C121.283 290.104 121.198 289.165 121.027 288.312C120.857 287.459 120.686 286.605 120.515 285.752C120.345 285.069 120.003 284.387 119.491 283.704C119.15 283.192 118.723 282.595 118.211 281.912C117.699 281.4 117.102 280.973 116.419 280.632C115.737 280.291 114.969 279.949 114.115 279.608C113.262 279.267 112.323 279.011 111.299 278.84C110.275 278.669 109.166 278.584 107.971 278.584H80.3235L69.5715 277.816V300.344ZM69.0595 186.936C69.0595 200.931 74.5208 207.928 85.4435 207.928H99.7795C111.555 207.928 117.358 200.931 117.187 186.936C117.017 179.768 115.566 174.733 112.835 171.832C110.275 168.76 105.838 167.224 99.5235 167.224H85.9555C82.3715 167.224 79.3848 167.821 76.9955 169.016C74.7768 170.04 73.0701 171.576 71.8755 173.624C70.8515 175.501 70.0835 177.464 69.5715 179.512C69.2301 181.56 69.0595 184.035 69.0595 186.936ZM175.957 118.84V96.312C175.957 91.8747 178.005 89.656 182.101 89.656H208.981C212.736 89.656 214.613 91.8747 214.613 96.312V118.84C214.613 120.717 214.101 122.168 213.077 123.192C212.224 124.216 210.859 124.728 208.981 124.728H182.101C180.907 124.728 179.797 124.557 178.773 124.216C177.92 123.704 177.237 123.021 176.725 122.168C176.213 121.144 175.957 120.035 175.957 118.84ZM177.237 275V139.064H213.077V275H177.237ZM228.325 166.2V146.232L250.341 138.808L256.229 100.92H286.181V138.808H316.645V166.2H286.181V220.728C286.181 227.043 286.693 232.163 287.717 236.088C288.741 239.843 290.021 242.488 291.557 244.024C293.093 245.389 295.141 246.584 297.701 247.608C307.941 251.192 313.659 252.984 314.853 252.984V275H283.621C273.04 275 264.848 271.245 259.045 263.736C253.243 256.056 250.341 243.597 250.341 226.36V166.2H228.325ZM333.505 344.12V139.064H362.945L369.089 152.632C374.039 148.707 380.268 145.208 387.777 142.136C395.457 139.064 402.967 137.528 410.305 137.528C416.961 137.528 422.764 138.637 427.713 140.856C432.833 143.075 437.015 146.147 440.257 150.072C443.671 153.997 446.487 158.861 448.705 164.664C450.924 170.467 452.46 176.781 453.313 183.608C454.167 190.435 454.593 198.029 454.593 206.392C454.593 213.389 454.337 219.704 453.825 225.336C453.484 230.968 452.716 236.6 451.521 242.232C450.327 247.693 448.62 252.472 446.401 256.568C444.353 260.664 441.708 264.333 438.465 267.576C435.393 270.648 431.468 273.037 426.689 274.744C421.911 276.28 416.449 277.048 410.305 277.048C404.161 277.048 397.249 276.28 389.569 274.744C381.889 273.037 375.063 270.904 369.089 268.344V344.12H333.505ZM369.089 243.768C377.964 247.181 388.631 248.888 401.089 248.888C405.185 248.888 408.428 247.949 410.817 246.072C413.207 244.024 415.084 239.928 416.449 233.784C417.985 227.64 418.753 219.021 418.753 207.928C418.753 193.251 417.303 183.011 414.401 177.208C411.5 171.235 407.063 168.248 401.089 168.248C388.46 168.248 377.793 170.979 369.089 176.44V243.768ZM475.755 275V139.064H505.963L511.595 156.216C524.395 143.928 537.366 137.784 550.507 137.784C557.846 137.784 562.881 138.296 565.611 139.32V173.88C560.833 173.368 554.262 173.112 545.899 173.112C537.878 173.112 531.137 174.221 525.675 176.44C520.385 178.488 515.691 182.413 511.595 188.216V275H475.755ZM580.457 208.952C580.457 194.957 581.481 183.437 583.529 174.392C585.577 165.347 589.161 158.093 594.281 152.632C599.401 147.171 605.716 143.331 613.225 141.112C620.905 138.893 630.633 137.784 642.409 137.784C665.791 137.784 681.919 142.904 690.793 153.144C699.839 163.384 704.361 181.987 704.361 208.952C704.361 234.381 699.924 251.96 691.049 261.688C682.345 271.416 666.132 276.28 642.409 276.28C633.023 276.28 624.831 275.512 617.833 273.976C611.007 272.269 605.119 269.795 600.169 266.552C595.391 263.309 591.551 259.043 588.649 253.752C585.748 248.291 583.615 241.976 582.249 234.808C581.055 227.469 580.457 218.851 580.457 208.952ZM616.297 208.952C616.297 217.656 616.724 224.568 617.577 229.688C618.431 234.808 619.967 238.733 622.185 241.464C624.575 244.024 627.22 245.645 630.121 246.328C633.023 247.011 637.119 247.352 642.409 247.352C647.017 247.352 650.516 247.181 652.905 246.84C655.465 246.499 657.855 245.645 660.073 244.28C662.463 242.915 664.169 240.781 665.193 237.88C666.388 234.979 667.241 231.309 667.753 226.872C668.265 222.264 668.521 216.291 668.521 208.952C668.521 201.101 668.265 194.787 667.753 190.008C667.412 185.059 666.729 180.963 665.705 177.72C664.681 174.307 663.06 171.917 660.841 170.552C658.623 169.016 656.148 167.992 653.417 167.48C650.687 166.797 647.017 166.456 642.409 166.456C638.655 166.456 635.583 166.627 633.193 166.968C630.804 167.309 628.5 168.077 626.281 169.272C624.063 170.296 622.356 171.747 621.161 173.624C620.137 175.331 619.199 177.805 618.345 181.048C617.492 184.291 616.895 188.131 616.553 192.568C616.383 197.005 616.297 202.467 616.297 208.952ZM718.075 166.456V143.416L739.323 139.064V113.72C739.323 107.576 740.006 102.2 741.371 97.592C742.737 92.984 744.87 88.888 747.771 85.304C750.843 81.5493 755.025 78.7333 760.315 76.856C765.606 74.808 772.006 73.784 779.515 73.784C792.315 73.784 803.75 75.832 813.819 79.928V101.176L789.243 100.92C786.513 100.92 784.209 101.261 782.331 101.944C780.454 102.627 779.003 103.395 777.979 104.248C777.126 104.931 776.443 106.467 775.931 108.856C775.59 111.075 775.334 112.952 775.163 114.488C775.163 115.853 775.163 118.413 775.163 122.168V139.064H806.139V166.456H775.163V275H739.323V166.456H718.075ZM826.957 118.84V96.312C826.957 91.8747 829.005 89.656 833.101 89.656H859.981C863.736 89.656 865.613 91.8747 865.613 96.312V118.84C865.613 120.717 865.101 122.168 864.077 123.192C863.224 124.216 861.859 124.728 859.981 124.728H833.101C831.907 124.728 830.797 124.557 829.773 124.216C828.92 123.704 828.237 123.021 827.725 122.168C827.213 121.144 826.957 120.035 826.957 118.84ZM828.237 275V139.064H864.077V275H828.237ZM887.005 226.616V74.552H922.845V220.984C922.845 230.029 923.784 236.344 925.661 239.928C927.539 243.512 930.525 246.072 934.621 247.608C944.861 251.192 950.579 252.984 951.773 252.984V275H922.077C916.445 275 911.496 274.147 907.229 272.44C902.963 270.733 899.293 268.088 896.221 264.504C893.149 260.749 890.845 255.715 889.309 249.4C887.773 243.085 887.005 235.491 887.005 226.616ZM965.207 206.392C965.207 194.616 965.89 184.803 967.255 176.952C968.791 168.931 970.925 162.36 973.655 157.24C976.386 151.949 980.226 147.939 985.175 145.208C990.125 142.477 995.586 140.6 1001.56 139.576C1007.7 138.552 1015.38 138.04 1024.6 138.04C1030.74 138.04 1035.95 138.211 1040.22 138.552C1044.48 138.723 1048.75 139.235 1053.02 140.088C1057.45 140.771 1061.04 141.88 1063.77 143.416C1066.5 144.781 1069.14 146.744 1071.7 149.304C1074.26 151.693 1076.23 154.68 1077.59 158.264C1079.13 161.677 1080.24 165.859 1080.92 170.808C1081.77 175.587 1082.2 181.133 1082.2 187.448C1082.2 199.395 1079.04 208.099 1072.73 213.56C1066.41 219.021 1056.94 221.752 1044.31 221.752H1001.05C1001.05 229.603 1002.16 235.491 1004.38 239.416C1006.76 243.171 1009.67 245.475 1013.08 246.328C1016.66 247.181 1022.21 247.608 1029.72 247.608C1050.71 247.608 1067.35 246.669 1079.64 244.792V269.112C1066.84 273.891 1043.63 276.28 1010.01 276.28C1001.3 276.28 994.05 275 988.247 272.44C982.615 269.88 978.093 265.699 974.679 259.896C971.266 254.093 968.791 246.925 967.255 238.392C965.89 229.859 965.207 219.192 965.207 206.392ZM1001.05 195.896H1035.1C1042.6 195.896 1046.36 192.483 1046.36 185.656C1046.36 177.123 1045.16 171.661 1042.78 169.272C1040.56 166.712 1035.18 165.432 1026.65 165.432C1021.19 165.432 1017.09 165.688 1014.36 166.2C1011.8 166.541 1009.24 167.736 1006.68 169.784C1004.29 171.661 1002.67 174.648 1001.82 178.744C1001.13 182.84 1000.88 188.557 1001.05 195.896ZM1097.92 186.168V174.392C1097.92 149.987 1109.69 137.784 1133.24 137.784C1173.69 137.784 1197.93 140.088 1205.95 144.696V167.224H1144.25C1142.03 167.224 1140.16 167.395 1138.62 167.736C1137.25 168.077 1136.23 168.675 1135.55 169.528C1134.86 170.381 1134.35 171.32 1134.01 172.344C1133.84 173.368 1133.76 174.819 1133.76 176.696V182.84C1133.76 186.765 1134.61 189.24 1136.32 190.264C1138.02 191.117 1140.67 191.544 1144.25 191.544H1176.51C1182.82 191.544 1188.28 192.483 1192.89 194.36C1197.67 196.067 1201.42 198.541 1204.16 201.784C1207.06 205.027 1209.19 208.781 1210.56 213.048C1211.92 217.144 1212.6 221.667 1212.6 226.616V240.696C1212.6 261.176 1203.98 272.867 1186.75 275.768C1184.36 276.109 1181.88 276.28 1179.32 276.28C1136.32 276.28 1111.06 273.805 1103.55 268.856V246.584H1167.8C1173.78 246.584 1176.76 243.683 1176.76 237.88V231.48C1176.76 229.432 1176.51 227.811 1176 226.616C1175.65 225.421 1174.8 224.483 1173.44 223.8C1172.07 223.117 1170.19 222.776 1167.8 222.776H1136.06C1123.6 222.776 1114.13 219.875 1107.64 214.072C1101.16 208.269 1097.92 198.968 1097.92 186.168ZM1236.62 269.112V246.072C1236.62 241.805 1238.67 239.672 1242.76 239.672H1264.78C1269.05 239.672 1271.18 241.805 1271.18 246.072V269.112C1271.18 273.037 1269.05 275 1264.78 275H1242.76C1240.89 275 1239.35 274.488 1238.16 273.464C1237.13 272.269 1236.62 270.819 1236.62 269.112Z" fill="white"/>
</svg>
